<svg height="512pt" viewBox="-19 0 511 512" width="512pt" xmlns="http://www.w3.org/2000/svg"><path d="m296.5625 0h-118.285156c-106.601563 0-189.226563 93.179688-176.476563 199.019531l29.273438 242.960938c4.8125 39.957031 38.714843 70.019531 78.960937 70.019531h254.769532c40.246093 0 74.148437-30.0625 78.964843-70.019531l29.269531-242.960938c12.753907-105.839843-69.875-199.019531-176.476562-199.019531zm0 0" fill="#78da96"/><path d="m411.527344 235.394531h-348.210938c-8.3125 0-14.753906 7.265625-13.757812 15.515625l22.425781 186.140625c2.316406 19.234375 18.675781 33.742188 38.050781 33.742188h254.769532c19.375 0 35.734374-14.507813 38.054687-33.742188l22.425781-186.140625c.992188-8.25-5.449218-15.515625-13.757812-15.515625zm0 0" fill="#f05e71"/><path d="m102.890625 437.050781-22.425781-186.140625c-.996094-8.25 5.445312-15.515625 13.757812-15.515625h-30.90625c-8.3125 0-14.753906 7.265625-13.757812 15.515625l22.425781 186.140625c2.316406 19.234375 18.675781 33.742188 38.050781 33.742188h30.90625c-19.375 0-35.734375-14.507813-38.050781-33.742188zm0 0" fill="#e85066"/><path d="m154.484375 356.605469c-4.265625 0-7.726563-3.457031-7.726563-7.726563v-15.007812c0-4.269532 3.460938-7.726563 7.726563-7.726563s7.726563 3.457031 7.726563 7.726563v15.007812c0 4.269532-3.460938 7.726563-7.726563 7.726563zm0 0" fill="#514e5b"/><path d="m320.359375 356.605469c-4.269531 0-7.726563-3.457031-7.726563-7.726563v-15.007812c0-4.269532 3.457032-7.726563 7.726563-7.726563 4.265625 0 7.726563 3.457031 7.726563 7.726563v15.007812c0 4.269532-3.460938 7.726563-7.726563 7.726563zm0 0" fill="#514e5b"/><path d="m237.421875 364.617188c-10.210937 0-19.789063-4.261719-26.289063-11.699219-2.808593-3.210938-2.480468-8.09375.734376-10.902344 3.210937-2.808594 8.09375-2.480469 10.902343.734375 3.5625 4.074219 8.902344 6.414062 14.652344 6.414062 5.746094 0 11.085937-2.339843 14.652344-6.414062 2.808593-3.214844 7.6875-3.539062 10.902343-.730469 3.214844 2.808594 3.539063 7.6875.730469 10.902344-6.496093 7.433594-16.078125 11.695313-26.285156 11.695313zm0 0" fill="#514e5b"/><path d="m398.730469 87.160156c-25.898438-29.203125-63.136719-45.953125-102.167969-45.953125h-118.285156c-39.03125 0-76.269532 16.75-102.164063 45.953125-21.628906 24.390625-33.6875 55.601563-34.351562 87.804688-.214844 10.527344 8.398437 19.125 18.925781 19.125h156.261719l20.472656-11.746094 20.46875 11.746094h156.261719c10.53125 0 19.144531-8.597656 18.925781-19.125-.664063-32.203125-12.71875-63.414063-34.347656-87.804688zm0 0" fill="#d7ecec"/><path d="m72.667969 174.964844c.664062-32.203125 12.71875-63.414063 34.351562-87.804688 25.894531-29.203125 63.132813-45.953125 102.164063-45.953125h-30.90625c-39.03125 0-76.269532 16.75-102.164063 45.953125-21.628906 24.390625-33.6875 55.601563-34.351562 87.804688-.214844 10.527344 8.398437 19.125 18.925781 19.125h30.90625c-10.53125 0-19.144531-8.597656-18.925781-19.125zm0 0" fill="#d9d9d9"/><path d="m47.898438 137.234375 38.277343 15.492187c.949219.386719 1.929688.570313 2.898438.570313 3.054687 0 5.945312-1.828125 7.164062-4.832031 1.601563-3.957032-.308593-8.460938-4.265625-10.058594l-38.664062-15.648438c-2.078125 4.722657-3.882813 9.554688-5.410156 14.476563zm0 0" fill="#9ea8b3"/><path d="m90.964844 73.058594 24.109375 28.929687c1.527343 1.835938 3.726562 2.78125 5.941406 2.78125 1.742187 0 3.496094-.585937 4.941406-1.789062 3.277344-2.734375 3.71875-7.605469.988281-10.882813l-23.6875-28.425781c-4.300781 2.828125-8.445312 5.90625-12.417968 9.21875.042968.054687.078125.113281.125.167969zm0 0" fill="#9ea8b3"/><path d="m51.929688 126.058594c-.550782 1.347656-1.089844 2.703125-1.605469 4.070312-.875 2.34375-1.683594 4.714844-2.425781 7.105469l27.914062 11.300781c1.109375-5.070312 2.507812-10.070312 4.1875-14.976562l-26.691406-10.804688c-.464844 1.101563-.925782 2.199219-1.378906 3.304688zm0 0" fill="#8d97a1"/><path d="m103.257812 63.671875c-1.058593.695313-2.105468 1.40625-3.144531 2.132813-2.132812 1.484374-4.222656 3.042968-6.265625 4.648437-1.011718.796875-2.011718 1.609375-3.007812 2.4375.042968.054687 13.988281 16.804687 13.988281 16.804687.71875-.851562 1.449219-1.695312 2.191406-2.535156 2.714844-3.058594 5.558594-5.976562 8.511719-8.757812zm0 0" fill="#8d97a1"/><g fill="#9ea8b3"><path d="m173.121094 41.316406c-5.25.199219-10.460938.699219-15.609375 1.492188.058593.472656.160156.949218.3125 1.421875l11.464843 35.410156c1.058594 3.269531 4.089844 5.351563 7.351563 5.351563.785156 0 1.589844-.121094 2.378906-.378907 4.0625-1.316406 6.285157-5.671875 4.972657-9.730469zm0 0"/><path d="m421.535156 122.753906-38.667968 15.648438c-3.957032 1.601562-5.863282 6.105468-4.261719 10.0625 1.214843 3.003906 4.109375 4.828125 7.164062 4.828125.964844 0 1.945313-.179688 2.894531-.566407l38.28125-15.492187c-1.53125-4.921875-3.332031-9.753906-5.410156-14.480469zm0 0"/><path d="m348.886719 102.980469c1.441406 1.203125 3.195312 1.789062 4.941406 1.789062 2.210937 0 4.410156-.945312 5.9375-2.78125l24.113281-28.929687c.042969-.054688.078125-.113282.125-.167969-3.976562-3.3125-8.121094-6.394531-12.417968-9.21875l-23.691407 28.425781c-2.730469 3.277344-2.289062 8.148438.992188 10.882813zm0 0"/><path d="m295.820312 84.613281c.792969.257813 1.59375.378907 2.382813.378907 3.261719 0 6.289063-2.082032 7.351563-5.347657l11.464843-35.414062c.152344-.472657.25-.949219.3125-1.421875-5.148437-.792969-10.359375-1.292969-15.613281-1.492188l-10.867188 33.566406c-1.316406 4.0625.910157 8.417969 4.96875 9.730469zm0 0"/><path d="m229.695312 41.851562v35.410157c0 4.269531 3.457032 7.726562 7.726563 7.726562 4.265625 0 7.726563-3.457031 7.726563-7.726562v-35.410157c0-.21875-.015626-.433593-.035157-.644531h-15.386719c-.019531.210938-.03125.425781-.03125.644531zm0 0"/></g><path d="m248.660156 117.457031c-.609375-5.75-5.457031-10.109375-11.238281-10.109375s-10.632813 4.359375-11.242187 10.109375l-9.230469 76.632813h40.941406zm0 0" fill="#f05e71"/><path d="m220.636719 163.46875-3.6875 30.617188v.003906h40.941406l-3.6875-30.621094zm0 0" fill="#e85066"/></svg>