<svg height="511pt" viewBox="1 -10 511.999 511" width="511pt" xmlns="http://www.w3.org/2000/svg"><path d="m462.519531 245.484375c-12.753906-9.085937-30.460937-6.109375-39.546875 6.644531-.386718.542969-32.867187 44.972656-96.511718 50.183594v56.84375c39.917968-2.371094 71.019531-15.96875 92.226562-29.101562 32.011719-19.820313 48.683594-42.503907 50.480469-45.023438 9.082031-12.757812 6.105469-30.464844-6.648438-39.546875zm0 0" fill="#fbc4ac"/><path d="m49.480469 245.484375c12.753906-9.085937 30.460937-6.109375 39.546875 6.644531.386718.542969 32.867187 44.972656 96.511718 50.183594v56.84375c-39.917968-2.371094-71.019531-15.96875-92.226562-29.101562-32.011719-19.820313-48.683594-42.503907-50.480469-45.023438-9.082031-12.757812-6.105469-30.464844 6.648438-39.546875zm0 0" fill="#fbc4ac"/><path d="m42.835938 265.03125c-1.453126-2.042969-2.597657-4.210938-3.441407-6.449219-3.207031 8.535157-2.25 18.460938 3.441407 26.449219 1.792968 2.519531 18.464843 25.203125 50.476562 45.023438 21.207031 13.132812 52.3125 26.730468 92.226562 29.101562v-20c-39.914062-2.371094-71.019531-15.96875-92.226562-29.101562-32.011719-19.820313-48.683594-42.503907-50.476562-45.023438zm0 0" fill="#dfb297"/><path d="m469.167969 265.03125c1.453125-2.042969 2.59375-4.210938 3.4375-6.449219 3.207031 8.535157 2.25 18.460938-3.4375 26.449219-1.796875 2.519531-18.46875 25.203125-50.480469 45.023438-21.207031 13.132812-52.308594 26.730468-92.226562 29.101562v-20c39.917968-2.371094 71.019531-15.96875 92.226562-29.101562 32.011719-19.820313 48.683594-42.503907 50.480469-45.023438zm0 0" fill="#dfb297"/><path d="m342.957031 435.226562-173.914062-20.621093v-178.902344h173.914062zm0 0" fill="#00a5c6"/><path d="m85.222656 48.761719c-4.34375 30.957031-22.714844 55.035156-33.429687 66.773437-3.558594 3.890625-1.671875 10.179688 3.453125 11.410156 11.894531 2.855469 31.464844 5.113282 50.273437-3.550781l70.839844-74.632812c-23.8125-63.539063-84.90625-44.386719-91.136719 0zm0 0" fill="#ec6a34"/><path d="m92.085938 185.695312c0-42.058593 17.210937-81.535156 48.453124-111.152343 30.90625-29.296875 71.910157-45.429688 115.460938-45.429688s84.554688 16.132813 115.460938 45.429688c31.246093 29.617187 48.453124 69.09375 48.453124 111.152343zm0 0" fill="#ff8c57"/><g fill="#dfb297"><path d="m297.589844 319.09375c0 22.96875-18.621094 41.589844-41.589844 41.589844s-41.589844-18.621094-41.589844-41.589844 18.621094-41.589844 41.589844-41.589844 41.589844 18.621094 41.589844 41.589844zm0 0"/><path d="m426.777344 188.140625c0 16.59375-13.453125 30.050781-30.050782 30.050781-16.597656 0-30.050781-13.457031-30.050781-30.050781 0-16.597656 13.453125-30.050781 30.050781-30.050781 16.597657 0 30.050782 13.453125 30.050782 30.050781zm0 0"/><path d="m145.324219 188.140625c0 16.59375-13.453125 30.050781-30.050781 30.050781-16.597657 0-30.050782-13.457031-30.050782-30.050781 0-16.597656 13.453125-30.050781 30.050782-30.050781 16.597656 0 30.050781 13.453125 30.050781 30.050781zm0 0"/></g><path d="m396.726562 185.414062c-.039062-17.257812-7.339843-33.746093-20.003906-45.46875-24.851562-23.003906-73.296875-54.109374-120.722656-6.6875-47.421875-47.421874-95.871094-16.3125-120.722656 6.6875-12.664063 11.722657-19.964844 28.210938-20.003906 45.46875v.28125c0 73.675782 63.003906 133.398438 140.726562 133.398438s140.726562-59.722656 140.726562-133.398438c0-.09375 0-.1875 0-.28125zm0 0" fill="#fbc4ac"/><path d="m139.273438 185.695312c0-.09375 0-.1875 0-.28125.039062-17.257812 7.339843-33.746093 20.003906-45.46875 13.042968-12.074218 32.585937-26.371093 55.070312-30.382812-32.328125-6.054688-61.558594 14.175781-79.070312 30.382812-12.664063 11.722657-19.964844 28.210938-20.003906 45.46875v.28125c0 73.675782 63.003906 133.398438 140.726562 133.398438 4.042969 0 8.042969-.171875 12-.488281-72.101562-5.773438-128.726562-63.066407-128.726562-132.910157zm0 0" fill="#dfb297"/><path d="m339.242188 219.710938h-19.46875c-4.140626 0-7.5-3.359376-7.5-7.5 0-4.140626 3.359374-7.5 7.5-7.5h19.46875c4.144531 0 7.5 3.359374 7.5 7.5 0 4.140624-3.355469 7.5-7.5 7.5zm0 0" fill="#f98084"/><path d="m192.226562 219.710938h-19.46875c-4.140624 0-7.5-3.359376-7.5-7.5 0-4.140626 3.359376-7.5 7.5-7.5h19.46875c4.140626 0 7.5 3.359374 7.5 7.5 0 4.140624-3.359374 7.5-7.5 7.5zm0 0" fill="#f98084"/><path d="m14.851562 401.113281c158.816407-47.667969 317.632813 50.445313 476.453126 6.3125 6.625-1.84375 13.195312 3.074219 13.195312 9.949219v43.246094c0 4.558594-2.980469 8.601562-7.351562 9.914062-158.816407 47.667969-317.632813-50.449218-476.453126-6.3125-6.625 1.84375-13.195312-3.074218-13.195312-9.949218v-43.246094c0-4.5625 2.984375-8.605469 7.351562-9.914063zm0 0" fill="#3ac7b4"/><path d="m329.507812 198.726562c4.144532 0 7.5-3.359374 7.5-7.5v-14.292968c0-4.140625-3.355468-7.5-7.5-7.5-4.140624 0-7.5 3.359375-7.5 7.5v14.292968c0 4.140626 3.359376 7.5 7.5 7.5zm0 0"/><path d="m182.492188 198.726562c4.140624 0 7.5-3.359374 7.5-7.5v-14.292968c0-4.140625-3.359376-7.5-7.5-7.5-4.144532 0-7.5 3.359375-7.5 7.5v14.292968c0 4.140626 3.355468 7.5 7.5 7.5zm0 0"/><path d="m256 218.925781c7.289062 0 14.140625-3.054687 18.796875-8.378906 2.722656-3.121094 2.40625-7.855469-.710937-10.582031-3.121094-2.726563-7.859376-2.410156-10.585938.710937-1.804688 2.066407-4.539062 3.25-7.5 3.25s-5.691406-1.183593-7.5-3.25c-2.726562-3.121093-7.464844-3.4375-10.582031-.710937-3.121094 2.726562-3.4375 7.460937-.710938 10.582031 4.652344 5.324219 11.503907 8.378906 18.792969 8.378906zm0 0"/><path d="m7.03125 468.480469c4.5 3.417969 10.210938 4.507812 15.671875 2.992187 23.523437-6.539062 48.050781-10.191406 74.988281-11.175781 4.140625-.148437 7.375-3.628906 7.222656-7.765625-.148437-4.140625-3.613281-7.375-7.769531-7.222656-28.125 1.023437-53.789062 4.855468-78.457031 11.710937-1.816406.503907-3.6875-.8125-3.6875-2.726562v-43.242188c0-1.253906.824219-2.378906 2.007812-2.730469 58.675782-17.613281 118.535157-14.707031 177.597657-6.761718 20.117187 2.707031 40.148437 6 60.175781 9.292968 29.046875 4.773438 58.113281 9.554688 87.398438 12.601563 19.03125 1.980469 38.183593 3.179687 57.320312 3.179687 31.222656-.003906 62.566406-3.273437 93.8125-11.957031 1.8125-.503906 3.6875.820313 3.6875 2.726563v43.242187c0 1.253907-.824219 2.375-2.007812 2.730469-78.722657 23.628906-159.585938 10.335938-237.785157-2.519531-42.378906-6.96875-86.199219-14.171875-129.546875-15.574219-4.152344-.136719-7.601562 3.113281-7.738281 7.253906-.132813 4.136719 3.113281 7.601563 7.253906 7.738282 42.367188 1.371093 85.695313 8.492187 127.597657 15.382812 47.496093 7.808594 95.949218 15.773438 144.683593 15.773438 33.226563 0 66.585938-3.703126 99.847657-13.6875 7.472656-2.242188 12.695312-9.273438 12.695312-17.097657 0 0 0-43.226562 0-43.242187 0-11.664063-11.5-20.292969-22.703125-17.179688-45.871094 12.746094-92.484375 13.253906-138.839844 8.929688v-45.25c25.722657-4.488282 49.976563-13.699219 72.179688-27.449219 33.257812-20.59375 50.753906-44.402344 52.636719-47.050781 11.347656-15.929688 7.492187-38.683594-8.40625-50.003906-15.886719-11.316407-38.65625-7.527344-49.980469 8.367187-.222657.3125-20.472657 27.558594-59.511719 40.644531 18.933594-16.898437 33.203125-38.457031 40.769531-62.734375 20.050781-.75 36.132813-17.285156 36.132813-37.511719 0-8.875-3.101563-17.039062-8.269532-23.472656-4.832031-36.480468-21.871093-69.484375-49.390624-95.566406-4.523438-4.289062-9.386719-8.414062-14.460938-12.257812-3.304688-2.5-8.007812-1.851563-10.507812 1.453124-2.5 3.300782-1.851563 8.003907 1.449218 10.503907 4.636719 3.511719 9.078125 7.273437 13.203125 11.183593 21.375 20.265626 35.792969 45.089844 42.253907 72.523438-1.621094-.539062-3.289063-.972656-5-1.285156-2.882813-.53125-5.855469-.730469-8.78125-.582032-4.101563-7.078124-9.464844-13.132812-15.554688-18.550781-16.496094-14.660156-36.269531-26.910156-58.417969-30.273437-.164062-.023438-.332031-.046875-.5-.074219-21.835937-3.171875-42.347656 3.050781-61.167969 18.542969-.019531.015625-.039062.03125-.054687.042968-1.03125.851563-2.058594 1.722657-3.078125 2.625-1.023438-.90625-2.054688-1.777343-3.085938-2.628906-.015624-.011718-.027343-.023437-.042968-.035156-18.824219-15.496094-39.335938-21.71875-61.175782-18.546875-22.285156 3.242187-42.316406 15.585937-58.898437 30.332031-4.375 3.890625-8.460937 8.09375-11.871094 12.863282-1.320312 1.847656-2.550781 3.75-3.710937 5.699218-.066406 0-.136719 0-.203125-.003906-2.871094-.132812-5.738281.066406-8.566407.589844-1.710937.3125-3.382812.746094-5.003906 1.285156 2.089844-8.859375 5.015625-17.441406 8.730469-25.691406.054687-.109375.128906-.214844.179687-.328125 13.738282-30.324219 38.183594-55.464844 67.484376-71.078125 23.023437-12.265625 49.074218-18.796875 76.164062-18.796875 25.128906 0 50.058594 5.777343 72.089844 16.707031 3.714844 1.839844 8.210937.324219 10.054687-3.386719 1.839844-3.710937.324219-8.210937-3.386719-10.050781-24.09375-11.953125-51.328124-18.269531-78.757812-18.269531-26.726562 0-52.535156 5.828125-75.832031 16.847656-11.320313-24.257813-29.574219-37.984375-50.976563-37.984375-25.519531 0-47.613281 20.308594-51.394531 47.242188-4.074219 29.007812-21.511719 51.769531-31.542969 62.757812-3.488281 3.820312-4.667968 9.050781-3.152344 13.996094 1.507813 4.914062 5.394532 8.566406 10.394532 9.765625 7.648437 1.835937 15.316406 2.765625 22.792968 2.765625 5.683594 0 11.171876-.550782 16.441407-1.625-3.148438 9.453125-5.40625 19.238281-6.738281 29.292968-5.167969 6.433594-8.269532 14.59375-8.269532 23.46875 0 20.226563 16.082032 36.765626 36.132813 37.511719 7.566406 24.277344 21.835937 45.835938 40.769531 62.734375-39.03125-13.082031-59.273438-40.3125-59.488281-40.609375-11.515625-15.769531-33.996094-19.804687-50.003907-8.402343-16.105468 11.46875-19.875 33.898437-8.40625 50.003906 1.882813 2.648437 19.386719 26.460937 52.636719 47.050781 22.203125 13.75 46.457031 22.960937 72.179688 27.449219v18.765625c-49.335938-4.515625-99.191407-3.621094-148.847657 11.285156-7.472656 2.242187-12.695312 9.273437-12.695312 17.097656v43.242188c0 5.621093 2.5625 10.789062 7.03125 14.1875zm230.074219-143.003907c.042969.003907.082031.007813.125.015626 12.527343 1.492187 25.007812 1.285156 37.542969 0 .039062-.007813.078124-.011719.121093-.015626 5.058594-.605468 10.054688-1.453124 14.980469-2.542968-1.902344 17.007812-16.367188 30.269531-33.875 30.269531s-31.972656-13.261719-33.875-30.269531c4.925781 1.089844 9.921875 1.9375 14.980469 2.542968zm191.976562-68.972656c6.597657-9.257812 19.839844-11.472656 29.085938-4.890625 9.265625 6.601563 11.480469 19.835938 4.890625 29.085938-1.707032 2.398437-17.554688 23.953125-48.320313 43-19.816406 12.273437-41.40625 20.652343-64.28125 24.96875v-42.640625c51.851563-12.667969 78.339844-49.121094 78.625-49.523438zm-27.074219-46.414062c.121094-.652344.226563-1.304688.335938-1.957032.933594-5.523437 1.53125-11.109374 1.757812-16.710937.332032-8.367187-.230468-16.632813-2.53125-24.714844-.058593-.199219-.105468-.402343-.164062-.597656.128906.027344.257812.0625.386719.089844 4.226562.976562 8.0625 3.164062 11.097656 6.253906.011719.011719.023437.027344.039063.039063 3.929687 4.0625 6.347656 9.589843 6.347656 15.671874 0 10.617188-7.375 19.542969-17.269532 21.925782zm-325.71875-88.0625c-5.984374 0-12.140624-.710938-18.316406-2.121094 11.289063-12.523438 30.128906-37.691406 34.675782-70.078125 2.75-19.570313 18.457031-34.328125 36.542968-34.328125 15.429688 0 28.9375 10.839844 37.691406 29.992188-.078124.042968-.148437.089843-.222656.132812-5.542968 3.234375-10.898437 6.800781-16.03125 10.644531-14.671875 10.992188-27.777344 24.472657-38.203125 39.644531-4.753906 6.914063-8.964843 14.199219-12.566406 21.777344-7.164063 2.878906-15.078125 4.335938-23.570313 4.335938zm33.703126 88.0625c-9.894532-2.382813-17.269532-11.308594-17.269532-21.925782 0-6.085937 2.421875-11.613281 6.351563-15.675781 3-3.097656 6.933593-5.320312 11.136719-6.289062.128906-.03125.253906-.066407.382812-.09375-.0625.222656-.117188.441406-.179688.664062-2.050781 7.277344-2.785156 14.765625-2.597656 22.3125.175782 7.035157.90625 14.085938 2.175782 21.007813zm16.378906 4.722656c-3.472656-13.859375-5.46875-29.214844-1.734375-43.222656 2.984375-11.183594 9.445312-20.554688 18.027343-28.195313 13.203126-11.753906 28.683594-21.960937 46.148438-25.859375 13.761719-3.074218 27.011719-1.5 39.613281 4.667969 8.316407 4.074219 15.738281 9.851563 22.269531 16.382813 2.832032 2.832031 7.753907 2.851562 10.617188-.007813 6.507812-6.5 13.949219-12.289063 22.269531-16.375 13.457031-6.613281 28.894531-7.773437 43.289063-3.742187.011718.003906.019531.007812.03125.011718 17.03125 4.785156 32.019531 15.652344 42.417968 24.90625 11.417969 10.160156 18.992188 24.03125 19.832032 39.429688.582031 10.664062-.925782 21.667968-3.523438 32-11.070312 44.058594-46.707031 79.222656-92.429687 91.804687-24.210938 6.664063-50.191407 6.664063-74.402344 0-45.71875-12.582031-81.355469-47.746093-92.425781-91.800781zm-29.109375 108.890625c-30.757813-19.046875-46.613281-40.605469-48.320313-43-6.667968-9.371094-4.476562-22.417969 4.890625-29.089844 9.265625-6.597656 22.492188-4.367187 29.085938 4.890625.273437.382813 26.761719 36.851563 78.625 49.527344v42.636719c-22.875-4.3125-44.460938-12.695313-64.28125-24.964844zm79.28125 60.472656v-79.476562c9.597656 5.824219 19.773437 10.503906 30.375 14.039062 0 .125-.007813.253907-.007813.378907 0 27.066406 22.023438 49.085937 49.089844 49.085937s49.089844-22.019531 49.089844-49.085937c0-.125-.007813-.253907-.007813-.378907 10.601563-3.535156 20.777344-8.214843 30.375-14.039062v102.890625c-26.207031-2.992188-52.226562-7.238282-78.238281-11.542969-26.820312-4.414063-53.660156-8.820313-80.675781-11.871094zm0 0"/></svg>