<svg height="511pt" viewBox="0 -9 511.99978 511" width="511pt" xmlns="http://www.w3.org/2000/svg"><path d="m284.09375 23.613281c16.589844 26.613281 34.1875 57.21875 51.699219 89.851563 9.457031 17.625 26.453125 29.964844 46.140625 33.496094 34.847656 6.257812 67.835937 12.890624 96.949218 19.644531 23.929688 5.550781 33.664063 34.34375 18.003907 53.269531-20.46875 24.734375-43.503907 51.203125-68.871094 78.234375-13.296875 14.171875-19.613281 33.523437-17.238281 52.808594 4.332031 35.226562 7.75 68.496093 10.351562 99.078125 2.09375 24.597656-22.59375 42.777344-45.433594 33.402344-31.21875-12.820313-59.285156-27.515626-91.148437-43.144532-17.910156-8.785156-38.867187-8.894531-56.875-.320312-31.785156 15.136718-61.660156 29.691406-90.808594 42.058594-22.933593 9.730468-48.011719-8.398438-45.886719-33.21875 2.585938-30.246094 5.96875-63.101563 10.246094-97.855469 2.375-19.289063-3.941406-38.640625-17.238281-52.808594-25.367187-27.035156-48.402344-53.503906-68.871094-78.234375-15.660156-18.925781-5.925781-47.722656 18.003907-53.273438 29.113281-6.753906 62.101562-13.386718 96.949218-19.640624 19.6875-3.535157 36.683594-15.875 46.140625-33.5 17.511719-32.628907 35.109375-63.238282 51.699219-89.851563 12.972656-20.8125 43.214844-20.8125 56.1875.003906zm0 0" fill="#f9ee80"/><path d="m191.980469 206.679688c75.507812-42.085938 105.8125-160.5625 105.8125-160.5625-4.625-7.769532-9.199219-15.289063-13.695313-22.503907-12.972656-20.816406-43.21875-20.816406-56.191406 0-16.585938 26.613281-34.183594 57.21875-51.695312 89.851563-9.460938 17.625-26.457032 29.964844-46.144532 33.496094-34.847656 6.257812-67.835937 12.886718-96.949218 19.644531-23.929688 5.550781-33.664063 34.34375-18 53.269531 20.464843 24.734375 43.5 51.203125 68.871093 78.234375 13.296875 14.171875 19.609375 33.523437 17.234375 52.808594-4.277344 34.757812-7.65625 67.613281-10.246094 97.859375-2.125 24.820312 22.957032 42.945312 45.886719 33.21875 24.207031-10.269532 48.929688-22.058594 74.816407-34.425782-15.894532-108.910156-80.527344-206.988281-19.699219-240.890624zm0 0" fill="#eedb00"/><path d="m191.980469 273.757812c0-13.183593-13.421875-23.867187-29.972657-23.867187-16.554687 0-29.972656 10.683594-29.972656 23.867187 0 13.183594 13.417969 23.867188 29.972656 23.867188 16.550782 0 29.972657-10.683594 29.972657-23.867188zm0 0" fill="#ff83b4"/><path d="m379.96875 273.757812c0-13.183593-13.421875-23.867187-29.972656-23.867187-16.554688 0-29.972656 10.683594-29.972656 23.867187 0 13.183594 13.417968 23.867188 29.972656 23.867188 16.550781 0 29.972656-10.683594 29.972656-23.867188zm0 0" fill="#ff83b4"/><path d="m256 269.882812c-9.707031 0-19.414062-3.140624-27.511719-9.421874-3.277343-2.539063-3.871093-7.25-1.332031-10.523438s7.25-3.871094 10.523438-1.332031c10.785156 8.367187 25.851562 8.367187 36.640624 0 3.273438-2.535157 7.984376-1.941407 10.523438 1.332031s1.941406 7.984375-1.332031 10.523438c-8.097657 6.28125-17.804688 9.421874-27.511719 9.421874zm0 0"/><path d="m180.46875 255.496094c-1.679688-2.46875-4.128906-2.765625-5.125-2.765625-.992188 0-3.480469.269531-5.121094 2.765625-2.273437 3.460937-6.925781 4.425781-10.386718 2.148437-3.460938-2.273437-4.425782-6.921875-2.148438-10.382812 3.917969-5.96875 10.519531-9.53125 17.65625-9.53125 7.140625 0 13.742188 3.5625 17.660156 9.53125 2.273438 3.460937 1.3125 8.109375-2.148437 10.382812-1.269531.835938-6.882813 2.996094-10.386719-2.148437zm0 0"/><path d="m341.777344 255.496094c-1.679688-2.46875-4.125-2.765625-5.121094-2.765625-.992188 0-3.484375.269531-5.121094 2.765625-2.277344 3.460937-6.925781 4.425781-10.386718 2.148437-3.460938-2.273437-4.425782-6.921875-2.152344-10.382812 3.921875-5.96875 10.523437-9.53125 17.660156-9.53125 7.140625 0 13.742188 3.5625 17.660156 9.53125 2.273438 3.460937 1.3125 8.109375-2.148437 10.382812-1.273438.835938-6.886719 2.996094-10.390625-2.148437zm0 0"/><path d="m96.542969 399.007812c-.269531 0-.542969-.015624-.816407-.046874-4.117187-.445313-7.097656-4.140626-6.652343-8.261719 1.453125-13.433594 3.035156-27.125 4.707031-40.695313 2.105469-17.136718-3.457031-34.179687-15.261719-46.761718-23.28125-24.808594-46.558593-51.246094-69.183593-78.582032-9.019532-10.902344-11.703126-25.417968-7.175782-38.828125 4.53125-13.414062 15.46875-23.332031 29.261719-26.535156 28.414063-6.589844 61.15625-13.222656 97.320313-19.714844 17.539062-3.148437 32.429687-13.960937 40.855468-29.664062 17.777344-33.121094 35.25-63.492188 51.941406-90.273438 7.472657-11.988281 20.355469-19.144531 34.460938-19.144531s26.988281 7.15625 34.457031 19.144531c11.609375 18.621094 23.746094 39.246094 36.078125 61.304688 2.019532 3.613281.726563 8.183593-2.886718 10.203125-3.617188 2.023437-8.1875.730468-10.207032-2.882813-12.214844-21.851562-24.234375-42.269531-35.710937-60.691406-4.714844-7.5625-12.839844-12.078125-21.730469-12.078125-8.894531 0-17.015625 4.515625-21.730469 12.078125-16.519531 26.507813-33.832031 56.597656-51.453125 89.433594-10.605468 19.761719-29.347656 33.371093-51.425781 37.335937-35.914063 6.445313-68.410156 13.027344-96.578125 19.5625-8.691406 2.015625-15.585938 8.269532-18.441406 16.722656-2.851563 8.449219-1.164063 17.59375 4.523437 24.464844 22.421875 27.09375 45.492188 53.296875 68.558594 77.882813 14.867187 15.835937 21.867187 37.289062 19.214844 58.855469-1.664063 13.496093-3.238281 27.113281-4.679688 40.476562-.414062 3.84375-3.664062 6.695312-7.445312 6.695312zm0 0"/><path d="m372.847656 490.335938c-24.691406-10.136719-84.699218-39.960938-91.605468-43.347657-15.945313-7.820312-34.292969-7.921875-50.34375-.28125-4.898438 2.332031-66.296876 31.664063-91.105469 42.191407-13.230469 5.613281-28.074219 3.925781-39.703125-4.507813-11.609375-8.417969-17.808594-21.972656-16.585938-36.253906.675782-7.925781 1.410156-16.007813 2.171875-24.027344.394531-4.125 4.054688-7.144531 8.179688-6.753906 4.125.394531 7.148437 4.054687 6.753906 8.175781-.761719 7.972656-1.488281 16.007812-2.160156 23.886719-.769531 8.992187 3.136719 17.527343 10.445312 22.828125 7.335938 5.320312 16.699219 6.382812 25.039063 2.84375 24.503906-10.394532 85.613281-39.589844 90.515625-41.925782 20.210937-9.621093 43.320312-9.492187 63.398437.355469 6.929688 3.402344 66.503906 33.007813 90.695313 42.941407 8.273437 3.394531 17.523437 2.257812 24.75-3.046876 7.25-5.320312 11.125-13.835937 10.363281-22.78125-2.726562-32.070312-6.203125-65.3125-10.324219-98.796874-2.652343-21.566407 4.347657-43.019532 19.214844-58.859376 23.066406-24.582031 46.132813-50.785156 68.558594-77.882812 5.6875-6.867188 7.375-16.011719 4.523437-24.460938-2.855468-8.457031-9.75-14.707031-18.441406-16.722656-28.167969-6.535156-60.664062-13.117187-96.578125-19.5625-22.078125-3.964844-40.820313-17.570312-51.425781-37.335937-1.957032-3.648438-.585938-8.195313 3.0625-10.152344 3.648437-1.960937 8.195312-.589844 10.15625 3.058594 8.425781 15.703125 23.316406 26.515625 40.855468 29.664062 36.164063 6.492188 68.90625 13.125 97.320313 19.714844 13.789063 3.203125 24.730469 13.121094 29.261719 26.535156 4.527344 13.410157 1.84375 27.925781-7.179688 38.828125-22.621094 27.332032-45.894531 53.773438-69.175781 78.582032-11.808594 12.582031-17.375 29.628906-15.265625 46.761718 4.144531 33.671875 7.640625 67.101563 10.382812 99.359375 1.207032 14.195313-5.496093 26.992188-16.433593 36.144531-15.621094 13.078126-34.316407 6.882813-39.320313 4.828126zm0 0"/></svg>